# xmcd
# Copyright (c) 1998 CDDB Inc.
#
# Track frame offsets:
#	160
#	16825
#	31280
#	47862
#	66755
#	88030
#	116100
#	135322
#	151360
#	164092
#	183365
#	205470
#
# Disc length: 2959 seconds
#
# Revision: 1
# Processed by: cddbd v1.5.2PL0 Copyright (c) Steve Scherf et al.
# Submitted via: AudioCatalyst 2.10full
#
DISCID=a30b8d0c
DTITLE=Various Artist - Союз 15(CD1)
DYEAR=1900
DGENRE=
TTITLE0=Лена Ильичева - Летите
TTITLE1=Вадим Казаченко - Золотая
TTITLE2=Валерия - Обычные дела
TTITLE3=Валерий Сюткин - Почему
TTITLE4=Александр Буйнов - Красавица жена
TTITLE5=Игорь Саруханов - Скрипка-лиса
TTITLE6=Наталья Сенчукова - Я по тебе скучаю
TTITLE7=Александр Айвазов - Ты улыбнись
TTITLE8=Агата Кристи - Сказочная тайга
TTITLE9=Ольга Кормухина - Ангел-Хранитель
TTITLE10=Вячеслав Добрынин - Я боюсь твоей любви
TTITLE11=Сергей Минаев - Минаки Да
EXTD=
EXTT0=
EXTT1=
EXTT2=
EXTT3=
EXTT4=
EXTT5=
EXTT6=
EXTT7=
EXTT8=
EXTT9=
EXTT10=
EXTT11=
PLAYORDER=
